<mxfile host="app.diagrams.net" modified="2023-09-18T21:46:18.748Z" agent="Mozilla/5.0 (X11; Ubuntu; Linux x86_64; rv:109.0) Gecko/20100101 Firefox/117.0" version="21.7.5" etag="2EqgkSkMN2-6ZKLjBYWL" type="github">
  <diagram name="Page-1" id="jiOkAj1Nho_yncC2XOPs">
    <mxGraphModel>
      <root>
        <mxCell id="0" />
        <mxCell id="1" parent="0" />
      </root>
    </mxGraphModel>
  </diagram>
</mxfile>
